<svg width="108" height="25" viewBox="0 0 108 25" fill="none" xmlns="http://www.w3.org/2000/svg">
<path d="M5.68774 2.14968C5.34796 2.48946 5.00818 2.82924 4.66839 3.28228C3.196 5.43424 2.40318 7.81272 2.85622 10.4177C2.96948 11.0973 3.42252 11.7768 3.64905 12.4564C3.76231 12.6829 3.76231 13.0227 3.76231 13.2492C3.53578 13.2492 3.196 13.3625 2.96948 13.2492C1.15731 12.7962 -0.201822 10.6442 0.0246996 8.7188C0.477743 5.09446 2.40318 2.48946 5.46122 0.564024C6.59383 -0.115541 7.61317 0.224242 8.63252 0.903807C8.85904 1.01707 9.08556 1.47011 9.08556 1.69663C9.08556 7.58619 9.08556 13.4758 8.9723 19.3653C8.9723 20.7244 8.51926 22.0836 7.8397 23.2162C7.38665 24.009 6.70709 24.5753 5.801 24.9151C5.68774 25.0284 5.34796 25.0284 5.2347 24.9151C5.12144 24.8018 5.12144 24.5753 5.12144 24.3488C5.34796 23.2162 5.57448 21.9703 5.801 20.8377C5.91426 19.9316 5.91426 19.1388 5.91426 18.2327C5.91426 13.2492 6.02752 8.1525 6.02752 3.16902C6.02752 2.82924 6.02752 2.48946 6.02752 2.14968C5.801 2.26294 5.801 2.26294 5.68774 2.14968Z" fill="black"/>
<path d="M58.3539 20.9509C58.2407 20.4979 58.0141 20.0448 57.9009 19.4785C57.7876 19.5918 57.7876 19.8183 57.6744 19.9316C57.4478 20.3846 57.1081 20.7244 56.5418 20.6111C55.9754 20.4979 55.7489 20.1581 55.6357 19.705C55.5224 19.0255 55.2959 18.4592 55.2959 17.7796C55.2959 15.0613 55.2959 12.2298 55.4091 9.51157C55.4091 9.28504 55.4091 8.94526 55.2959 8.71874C54.7296 8.03918 53.9368 8.03918 53.1439 8.03918C52.4644 8.03918 52.4644 8.60548 52.4644 9.05852C50.3124 6.56679 47.5941 7.35961 46.1218 9.62483C45.4422 10.7574 44.9891 11.89 44.8759 13.2492C44.7626 14.3818 44.7626 15.5144 44.5361 16.5337C44.3096 17.6663 43.8565 18.6857 42.9505 19.4785C42.0444 20.3846 41.3648 20.2713 41.025 19.0255C40.9118 18.5724 40.6852 18.0061 40.6852 17.5531C40.6852 14.1553 40.7985 10.8707 40.7985 7.47287C40.7985 7.13309 40.9118 7.01983 41.3648 7.01983C42.2709 7.01983 43.177 7.01983 44.0831 7.01983C44.9892 7.01983 45.4422 6.56679 45.3289 5.54744C45.3289 5.32092 45.1024 5.0944 44.8759 5.0944C44.1963 5.20766 43.63 5.20766 43.0637 5.0944C42.2709 5.0944 41.4781 4.98113 40.6852 4.98113C40.6852 4.07505 40.7985 3.16896 40.7985 2.37613C40.7985 0.903744 40.7985 0.903744 39.3261 0.563962C37.6272 0.110919 37.5139 0.224179 37.4007 2.03635C37.4007 2.82918 37.4007 3.84853 37.4007 4.75461C36.4946 4.75461 35.7018 4.86787 34.9089 4.75461C34.2294 4.64135 33.8896 4.98113 33.7763 5.54744C33.6631 5.77396 33.6631 6.11374 33.6631 6.34026C33.6631 6.79331 33.7763 7.01983 34.3426 7.01983C35.362 7.01983 36.2681 7.01983 37.2874 7.01983C37.2874 7.35961 37.2874 7.58613 37.2874 7.81265C37.2874 9.73809 37.2874 11.7768 37.1742 13.7022C37.1742 15.6277 36.2681 17.1 34.9089 18.4592H34.7957C35.0222 16.8735 34.4559 15.6277 33.3233 14.6083C32.9835 14.2685 32.5305 13.9287 32.1907 13.7022C31.5111 13.1359 30.8315 12.5696 30.0387 12.1166C30.152 11.89 30.2652 11.7768 30.3785 11.6635C30.7183 10.984 31.1713 10.3044 31.5111 9.62483C31.9642 8.2657 31.2846 7.47287 29.9255 7.58613C27.547 7.81265 26.0746 10.7574 27.547 12.5696C27.6602 12.6829 27.6602 13.0227 27.6602 13.1359C26.6409 14.9481 25.6216 16.647 24.6022 18.4592C24.3757 18.799 24.0359 19.1387 23.8094 19.3653C23.4696 19.705 23.1298 19.5918 23.0166 19.0255C22.9033 18.6857 22.9033 18.3459 22.9033 18.1194C22.9033 15.5144 23.0166 13.0227 23.0166 10.4177C23.0166 8.94526 21.4309 7.58613 19.9585 7.81265C18.8259 8.03918 18.0331 8.832 17.4668 9.73809C16.6739 11.0972 16.1076 12.5696 15.4281 14.042C15.3148 14.3818 15.2016 14.7216 14.975 15.0613C14.8618 13.2492 14.8618 11.437 14.8618 9.62483C14.8618 8.15244 14.7485 8.03918 13.2761 7.81265C13.1629 7.81265 13.1629 7.81265 13.0496 7.81265C12.2568 7.69939 12.1435 7.81265 12.0303 8.60548C12.0303 11.89 11.917 15.1746 11.917 18.4592C11.917 19.1387 11.917 19.8183 12.0303 20.4979C12.1435 22.0835 12.7098 22.4233 14.2955 22.31C14.6353 22.31 14.8618 22.0835 14.975 21.7437C15.3148 20.1581 15.5413 18.6857 15.9944 17.1C16.6739 14.8348 17.58 12.6829 19.0524 10.7574C19.0524 10.6442 19.2789 10.4177 19.6187 10.0779C19.6187 10.5309 19.6187 10.7574 19.6187 10.984C19.5055 13.589 19.5055 16.0807 19.5055 18.6857C19.5055 19.4785 19.732 20.3846 19.9585 21.1774C20.2983 22.1968 21.3176 22.6498 22.337 22.1968C22.79 21.9703 23.3563 21.7437 23.6961 21.2907C24.3757 20.4979 25.1685 19.705 25.7348 18.799C26.6409 17.4398 27.4337 15.9674 28.3398 14.495C28.4531 14.2685 28.5663 14.1553 28.6796 13.9287C29.3592 14.6083 30.0387 15.1746 30.7183 15.8542C31.2846 16.4205 31.7376 17.2133 31.8509 18.1194C31.8509 18.9122 31.7376 19.5918 31.0581 20.0448C30.3785 20.4979 29.8122 20.1581 29.2459 19.8183C28.9061 19.5918 28.6796 19.4785 28.4531 19.252C28 18.9122 27.547 18.9122 27.2072 19.3653C26.9807 19.5918 26.8674 19.8183 26.6409 20.0448C26.1879 20.9509 26.3011 21.2907 27.2072 21.7437C28.6796 22.4233 30.2652 22.5366 31.8509 22.1968C33.8896 21.7437 35.2487 20.4979 36.2681 18.799C36.6078 18.2326 36.8344 17.6663 37.1742 17.1C37.1742 17.2133 37.2874 17.2133 37.2874 17.3266C37.2874 17.4398 37.2874 17.6663 37.4007 17.7796C37.6272 19.0255 37.8537 20.1581 38.6465 21.1774C39.5526 22.31 41.3648 22.9896 42.7239 21.5172C43.4035 20.8376 43.8565 19.9316 44.4228 19.1387C44.5361 19.0255 44.5361 18.9122 44.6494 18.6857C45.2157 20.4979 46.0085 21.9703 47.8207 22.31C50.0859 22.6498 51.5583 21.404 52.6909 19.5918C53.0307 21.1774 53.9368 22.31 55.5224 22.4233C56.8815 22.5366 57.6744 21.857 58.3539 20.9509ZM51.5583 18.4592C51.3318 19.1387 50.8787 19.705 50.4257 20.1581C49.7461 20.8377 48.84 20.6111 48.387 19.8183C48.0472 19.0255 47.7074 18.2326 47.5941 17.3266C47.3676 15.5144 47.4809 13.7022 48.0472 11.89C48.1604 11.437 48.387 10.984 48.7268 10.5309C49.6328 9.39831 51.1052 9.3983 51.6715 10.8707C52.1246 11.89 52.2378 13.1359 52.4644 14.2685C52.1246 15.7409 52.0113 17.1 51.5583 18.4592Z" fill="black"/>
<path d="M107.169 11.5504C107.056 11.5504 106.943 11.6637 106.83 11.8902C106.716 12.1167 106.603 12.4565 106.377 12.9096C105.584 14.835 104.678 16.5339 103.658 18.0063C103.205 18.6859 102.639 19.2522 101.959 19.7052C101.393 20.045 100.714 20.2715 99.9208 20.2715C99.1279 20.2715 98.5616 19.9317 97.9953 19.1389C97.429 18.3461 97.0892 17.44 96.976 16.4207C98.7882 16.4207 100.374 15.7411 101.62 14.7217C102.866 13.5891 103.545 12.23 103.545 10.6444C103.545 9.73827 103.319 9.05871 102.752 8.60566C102.186 8.15262 101.506 7.81284 100.714 7.81284C98.9014 7.81284 97.429 8.60566 96.2964 10.0781C95.1638 11.5504 94.5975 13.8157 94.5975 16.8737C94.5975 16.987 93.8047 19.0257 93.0119 19.8185C92.1058 20.7246 91.4262 20.3848 91.0864 19.3654C90.8599 18.9124 90.7466 18.3461 90.7466 17.893C90.7466 14.4952 90.8599 11.2107 90.8599 7.81284C90.8599 7.47305 90.9732 7.35979 91.4262 7.35979C92.3323 7.35979 93.2384 7.35979 94.1445 7.35979C95.0505 7.35979 95.5036 6.90675 95.3903 5.8874C95.3903 5.66088 95.1638 5.43436 94.9373 5.43436C94.371 5.3211 93.9179 5.3211 93.3516 5.3211C92.5588 5.3211 91.766 5.20784 90.9732 5.20784C90.9732 4.30175 91.0864 3.39566 91.0864 2.60284C91.0864 1.13045 91.0864 1.13045 89.614 0.790666C87.9151 0.337623 87.8019 0.450884 87.6886 2.26306C87.6886 3.2824 87.5753 4.18849 87.5753 5.09458C86.6693 5.09458 85.8764 5.20784 85.0836 5.09458C84.404 4.98132 84.0642 5.3211 83.951 5.8874C83.8377 5.8874 83.7245 6.11392 83.7245 6.34045C83.7245 6.79349 83.8377 7.02001 84.404 7.02001C85.4234 7.02001 86.3295 7.02001 87.3488 7.02001C87.3488 7.35979 87.3488 7.58631 87.3488 7.81284C87.3488 9.73827 87.3488 11.777 87.2356 13.7024C87.2356 14.6085 86.6692 16.3074 86.6692 16.3074C86.2162 17.7798 85.9897 18.4594 85.5366 19.3654C85.0836 20.1583 84.6306 20.498 84.2908 20.498C83.7245 20.498 82.8184 19.8185 82.9316 17.6665C83.0449 14.9483 82.9316 12.1167 83.0449 9.39849C83.0449 9.17197 83.0449 8.83218 82.9316 8.60566C82.3653 7.9261 81.5725 7.9261 80.7797 7.9261C80.1001 7.9261 80.1001 8.4924 80.1001 8.94544C77.9482 6.45371 75.2299 7.24653 73.7575 9.51175C73.0779 10.6444 72.6249 11.777 72.5116 13.1361C72.3984 14.2687 72.3984 15.4013 72.1719 16.4207C71.9453 17.5533 71.4923 18.5726 70.5862 19.3654C69.6801 20.2715 69.0006 20.1583 68.6608 18.9124C68.5475 18.4594 68.321 17.893 68.321 17.44C68.321 14.0422 68.6608 2.60284 68.6608 2.03654C68.6608 0.564145 68.6608 0.564145 67.1884 0.224362C65.4895 -0.228681 65.3762 -0.11542 65.263 1.69675C65.263 1.92327 65.1497 5.66088 65.0364 8.94544C64.8099 8.71892 64.6967 8.4924 64.4701 8.37914C63.2243 7.13327 61.4121 7.02001 60.053 8.15262C59.4867 8.60566 59.0336 9.28523 58.5806 9.85153C57.5612 11.5504 57.2214 13.4759 57.2214 15.4013C57.2214 17.2135 57.3347 19.2522 58.6938 21.0644C59.3734 21.8572 60.2795 22.3102 61.4121 22.197C62.9977 22.197 64.4701 22.0837 66.169 20.045C66.2823 20.3848 68.0945 23.2163 70.3597 21.2909C71.2658 20.498 71.4923 19.7052 72.0586 18.9124C72.1719 18.7991 72.1719 18.6859 72.2851 18.4594C72.8514 20.2715 73.6443 21.7439 75.4564 22.0837C77.7216 22.4235 79.194 21.1776 80.3266 19.3654C80.6664 20.9511 81.5725 22.0837 83.1582 22.197C84.1775 22.3102 85.0836 21.8572 85.8764 20.8378C86.6693 19.8185 87.009 18.7991 87.3488 17.1002C87.3488 17.1002 87.4621 17.5533 87.4621 17.6665C87.6886 18.9124 87.9151 20.045 88.7079 21.0644C89.614 22.197 91.4262 22.8765 92.7853 21.4041C93.9179 20.1583 94.5975 18.7991 94.5975 18.6859C94.824 19.3654 95.1638 19.9317 95.5036 20.498C96.2964 21.6307 97.429 22.197 98.7882 22.197C101.167 22.197 103.205 20.7246 104.904 17.7798C106.377 15.0615 107.169 13.0228 107.169 11.6637C107.396 11.6637 107.283 11.5504 107.169 11.5504ZM97.9953 10.9841C98.5616 9.62501 99.3545 8.94544 100.147 8.94544C100.827 8.94544 101.28 9.51175 101.28 10.7576C101.28 12.0035 100.94 13.0228 100.261 13.7024C99.581 14.4952 98.4484 14.9483 96.976 15.288C97.0892 13.7024 97.429 12.23 97.9953 10.9841ZM64.2436 18.5726C64.0171 19.1389 63.6773 19.7052 63.2243 20.045C62.4314 20.8378 61.5253 20.6113 60.959 19.7052C60.6193 19.0257 60.3927 18.2328 60.2795 17.44C60.1662 16.8737 60.1662 16.3074 60.1662 15.9676C60.2795 14.382 60.2795 12.9096 60.959 11.6637C61.1856 11.2107 61.5253 10.7576 61.8651 10.3046C62.7712 9.51175 63.9038 9.73827 64.4701 10.8709C64.5834 11.2107 64.6967 11.5504 64.8099 12.0035C64.8099 12.7963 64.8099 13.3626 64.8099 13.7024C64.8099 13.8157 64.8099 13.9289 64.8099 14.0422C64.8099 14.9483 64.8099 15.7411 64.9232 16.4207C64.6966 17.2135 64.5834 17.893 64.2436 18.5726ZM79.194 18.4594C78.9675 19.1389 78.5145 19.7052 78.0614 20.1583C77.3819 20.8378 76.4758 20.6113 76.0227 19.8185C75.6829 19.0257 75.3432 18.2328 75.2299 17.3267C75.0034 15.5146 75.1166 13.7024 75.683 11.8902C75.7962 11.4372 76.0227 10.9841 76.3625 10.5311C77.2686 9.39849 78.741 9.39849 79.3073 10.8709C79.7603 11.8902 79.8736 13.1361 80.1001 14.2687C79.8736 15.7411 79.6471 17.1002 79.194 18.4594Z" fill="black"/>
</svg>
